Coordinates
version=1
nRows=26
nColumns=24
inDegrees=yes

Units are S.I. units (second, meters, Newtons, ...)
Angles are in degrees.

endheader
time	pelvis_tilt	pelvis_list	pelvis_rotation	pelvis_tx	pelvis_ty	pelvis_tz	hip_flexion_r	hip_adduction_r	hip_rotation_r	knee_angle_r	ankle_angle_r	subtalar_angle_r	mtp_angle_r	hip_flexion_l	hip_adduction_l	hip_rotation_l	knee_angle_l	ankle_angle_l	subtalar_angle_l	mtp_angle_l	lumbar_extension	lumbar_bending	lumbar_rotation
      0.97466667	     -2.87318417	     -0.91980489	      1.60206244	     -0.09283728	      1.00462777	      0.29225269	    -11.74414857	      3.24345545	     -1.69438584	    -10.03901136	      7.87003988	     -3.62859528	      8.12965365	     21.17433736	      1.23325200	      3.50230521	      1.24110834	      1.59685846	     -0.70671356	      1.67163734	    -10.88277296	      5.23772711	      8.16111470
      0.97883333	     -2.87990971	     -0.84509646	      1.58041491	     -0.08708164	      1.00402648	      0.29182915	    -11.76886726	      3.10873365	     -1.79669309	    -10.68011890	      7.91229139	     -3.40204921	      8.22817131	     21.10730095	      1.38729233	      3.69294728	      1.18254350	      1.44789719	     -0.74535954	      1.68151567	    -10.84659982	      5.13908595	      8.10698176
      0.98300000	     -2.91830750	     -0.75515987	      1.55617939	     -0.08132115	      1.00340708	      0.29140536	    -11.73985624	      2.95745752	     -1.86506484	    -11.35857207	      7.92318046	     -3.23565150	      8.36019178	     21.07466526	      1.55805854	      3.91742619	      1.05106312	      1.24640646	     -0.86075751	      1.69833756	    -10.78313794	      5.03149998	      8.04787978
      0.98716667	     -2.92873113	     -0.66013320	      1.54048097	     -0.07555757	      1.00283533	      0.29097659	    -11.71463683	      2.80069208	     -1.96268937	    -12.08744449	      7.91726959	     -3.03963032	      8.56171484	     21.00906855	      1.73536181	      4.18172350	      0.86424254	      0.98972610	     -1.08630068	      1.72766798	    -10.74502293	      4.90863813	      7.97470034
      0.99133333	     -2.93548197	     -0.53625614	      1.52219395	     -0.06976346	      1.00230111	      0.29053880	    -11.67918439	      2.61148306	     -2.04503953	    -12.84387019	      7.87808194	     -2.88232925	      8.81262131	     20.93208672	      1.94157632	      4.45700833	      0.62919245	      0.68196587	     -1.36686752	      1.76546943	    -10.71675724	      4.76102446	      7.89272345
      0.99550000	     -2.96518973	     -0.39951803	      1.51170767	     -0.06395267	      1.00176941	      0.29013028	    -11.61028754	      2.41760292	     -2.08834592	    -13.61236537	      7.78920327	     -2.83372575	      9.02202265	     20.89551610	      2.16207651	      4.70027569	      0.30871808	      0.35457097	     -1.63044385	      1.79588189	    -10.65596220	      4.56340797	      7.81068246
      0.99966667	     -2.95712474	     -0.28761914	      1.51223967	     -0.05815902	      1.00129673	      0.28965895	    -11.54927618	      2.24377257	     -2.18438272	    -14.42555591	      7.56592415	     -2.82934391	     13.83903781	     20.80293580	      2.36300418	      5.06296136	     -0.01442668	     -0.06003069	     -2.15252542	      2.58644549	    -10.63798709	      4.44554019	      7.70718577
      1.00383333	     -2.94054952	     -0.12760143	      1.49355316	     -0.05232647	      1.00085736	      0.28920991	    -11.46620771	      2.00997147	     -2.29014626	    -15.31713441	      7.43875013	     -2.63998876	     13.91558145	     20.70717432	      2.60578928	      5.30261912	     -0.39536388	     -0.46225162	     -2.54063530	      2.57983887	    -10.62887932	      4.24644455	      7.62210807
      1.00800000	     -2.95949559	      0.02013516	      1.48133834	     -0.04651616	      1.00039658	      0.28876528	    -11.32091753	      1.79519314	     -2.36173845	    -16.24191969	      7.23976062	     -2.57291960	     14.06034448	     20.65510641	      2.83884503	      5.59966171	     -0.81552493	     -0.90703018	     -3.05778285	      2.57982036	    -10.58062438	      4.06555782	      7.52026496
      1.01216667	     -2.96288306	      0.18261612	      1.47298272	     -0.04068598	      0.99998748	      0.28830460	    -11.17264652	      1.56366950	     -2.44259297	    -17.20074407	      6.99835062	     -2.50596279	     14.28871375	     20.58453723	      3.08853135	      5.89168658	     -1.25824962	     -1.37817452	     -3.62657046	      2.58488391	    -10.54896041	      3.86568504	      7.40985325
      1.01633333	     -2.96221782	      0.35402000	      1.45220583	     -0.03485481	      0.99960369	      0.28786120	    -10.99467925	      1.31989634	     -2.51653912	    -18.21765620	      6.70815699	     -2.47850979	     14.56208186	     20.50918711	      3.34134382	      6.15130387	     -1.71951657	     -1.85858457	     -4.18381693	      2.59045306	    -10.51752319	      3.65650177	      7.29782024
      1.02050000	     -2.97561368	      0.52468313	      1.43896145	     -0.02904192	      0.99922005	      0.28739089	    -10.77324202	      1.07502902	     -2.59668033	    -19.27687626	      6.35888127	     -2.46085259	     14.92688178	     20.46052643	      3.59840503	      6.42361798	     -2.21992283	     -2.34111470	     -4.80251098	      2.59819793	    -10.48206955	      3.45940440	      7.18198321
      1.02466667	     -2.93314173	      0.71366635	      1.43264666	     -0.02319616	      0.99894567	      0.28692389	    -10.60617160	      0.81283082	     -2.69535994	    -20.32266842	      5.83246100	     -2.59305488	     20.59728761	     20.35443445	      3.87348574	      6.66045092	     -2.74368576	     -2.77311103	     -5.39519713	      2.78429146	    -10.50970234	      3.22054152	      7.04492207
      1.02883333	     -2.92209027	      0.91716097	      1.39471436	     -0.01737715	      0.99865583	      0.28647756	    -10.34109820	      0.52156619	     -2.78534547	    -21.49888367	      5.38864192	     -2.57988062	     20.66813869	     20.28462218	      4.15244272	      6.81314108	     -3.27702038	     -3.21801390	     -5.90479167	      2.77062749	    -10.49368596	      2.98122245	      6.94604735
      1.03300000	     -2.93984212	      1.09903586	      1.37120018	     -0.01159581	      0.99834517	      0.28600666	    -10.02370253	      0.25631794	     -2.86702787	    -22.69347603	      4.85329314	     -2.60007550	     20.84456477	     20.26513306	      4.41950963	      7.02467401	     -3.85903877	     -3.62448959	     -6.54760296	      2.75064501	    -10.46061666	      2.75993061	      6.83297361
      1.03716667	     -2.92395092	      1.30801712	      1.33217582	     -0.00580432	      0.99810583	      0.28555133	     -9.70587662	     -0.04579251	     -2.96192622	    -23.94832111	      4.27137271	     -2.64517504	     21.10369897	     20.19871478	      4.70540458	      7.19111632	     -4.42559863	     -4.00831243	     -7.13171186	      2.72496482	    -10.46034740	      2.51254189	      6.71055002
      1.04133333	     -2.89861218	      1.52870018	      1.28482493	     -0.00002758	      0.99790618	      0.28509454	     -9.36475018	     -0.36679226	     -3.06134753	    -25.25068872	      3.61793835	     -2.70149400	     21.48140625	     20.12290847	      5.00176339	      7.34589496	     -5.00005563	     -4.34335628	     -7.71046276	      2.68887302	    -10.47510610	      2.25158194	      6.58629260
      1.04550000	     -2.88590616	      1.75330370	      1.22750080	      0.00572613	      0.99771215	      0.28464296	     -8.97420511	     -0.69856674	     -3.15428574	    -26.60197429	      2.89450048	     -2.77390524	     22.02422617	     20.06684190	      5.30029273	      7.48382480	     -5.59248666	     -4.61613211	     -8.27163954	      2.63653708	    -10.47750638	      1.99026307	      6.46627428
      1.04966667	     -2.82193406	      1.99377968	      1.16151717	      0.01151326	      0.99761926	      0.28419573	     -8.62092548	     -1.05781777	     -3.27513974	    -27.95521530	      1.99275663	     -2.96403368	     27.75492972	     19.94780197	      5.60784650	      7.55141772	     -6.17710909	     -4.76176473	     -8.64288383	      2.09551168	    -10.52988870	      1.71707102	      6.33736726
      1.05383333	     -2.76244383	      2.25392453	      1.08093511	      0.01725463	      0.99752987	      0.28377584	     -8.22062609	     -1.43936266	     -3.36621198	    -29.38546036	      1.13667855	     -3.11538082	     27.78621557	     19.84959223	      5.93152911	      7.57647758	     -6.79728169	     -4.82110359	     -8.95960202	      2.09158344	    -10.58969734	      1.41297170	      6.22814760
      1.05800000	     -2.72977639	      2.50230393	      0.99103012	      0.02294462	      0.99741941	      0.28334450	     -7.74378052	     -1.82374470	     -3.47758104	    -30.88342610	      0.24860687	     -3.22748485	     27.89655293	     19.77482479	      6.24499355	      7.63610815	     -7.40170642	     -4.91576074	     -9.43986279	      2.07341161	    -10.61580567	      1.13227046	      6.11328653
      1.06216667	     -2.68937267	      2.76228607	      0.88938053	      0.02863110	      0.99733754	      0.28292304	     -7.25518024	     -2.22515114	     -3.56740352	    -32.39309428	     -0.73275939	     -3.37542549	     28.02517812	     19.69295666	      6.56690971	      7.66586096	     -8.01627390	     -4.88640736	     -9.80415162	      2.05291997	    -10.65286691	      0.84245421	      6.00013520
      1.06633333	     -2.58544538	      3.04403905	      0.77482646	      0.03431381	      0.99736928	      0.28252779	     -6.81764172	     -2.65461201	     -3.64766883	    -33.90882345	     -1.78432537	     -3.51065402	     28.11255457	     19.53217888	      6.90544981	      7.67781777	     -8.61456763	     -4.74560437	    -10.08983234	      2.03999752	    -10.77158152	      0.50340383	      5.87671683
      1.07050000	     -2.56883569	      3.30973162	      0.65412979	      0.03991237	      0.99727243	      0.28211984	     -6.23446575	     -3.07835909	     -3.72603181	    -35.49697811	     -2.83409704	     -3.70242256	     28.31509627	     19.48149474	      7.23026952	      7.67665821	     -9.23525495	     -4.65608209	    -10.47355878	      2.00018923	    -10.78961244	      0.22129537	      5.76137325
      1.07466667	     -2.50318393	      3.59495625	      0.51858808	      0.04551666	      0.99726989	      0.28173349	     -5.69100889	     -3.52929496	     -3.79169289	    -37.07858426	     -3.95508912	     -3.89026433	     28.53745484	     19.36105880	      7.56931080	      7.65689925	     -9.82578039	     -4.45023281	    -10.76622762	      1.95352569	    -10.86389603	     -0.09818429	      5.64287210
      1.07883333	     -2.38435079	      3.89183670	      0.37022533	      0.05113420	      0.99736616	      0.28136794	     -5.19146560	     -4.00114570	     -3.85795666	    -38.65496507	     -5.12345137	     -4.05148025	     28.64120475	     19.15707160	      7.91455321	      7.62716066	    -10.36385428	     -4.14187358	    -10.98634086	      1.93237696	    -10.99164447	     -0.42957012	      5.51798545
